{
    "asset": {
        "version": "2.0",
        "generator": "Open Asset Import Library (assimp v5.0.5eb040c7)"
    },
    "accessors": [
        {
            "bufferView": 0,
            "byteOffset": 0,
            "componentType": 5126,
            "count": 432,
            "type": "VEC3",
            "max": [
                25.621240615844728,
                1.7819700241088868,
                4.292439937591553
            ],
            "min": [
                23.59083366394043,
                0.7819700837135315,
                2.0209529399871828
            ]
        },
        {
            "bufferView": 1,
            "byteOffset": 0,
            "componentType": 5125,
            "count": 2592,
            "type": "SCALAR",
            "max": [
                431
            ],
            "min": [
                0
            ]
        },
        {
            "bufferView": 2,
            "byteOffset": 0,
            "componentType": 5126,
            "count": 528,
            "type": "VEC3",
            "max": [
                23.25522804260254,
                1.7819700241088868,
                4.292439937591553
            ],
            "min": [
                21.2252140045166,
                0.7819700837135315,
                2.0209529399871828
            ]
        },
        {
            "bufferView": 3,
            "byteOffset": 0,
            "componentType": 5125,
            "count": 3156,
            "type": "SCALAR",
            "max": [
                527
            ],
            "min": [
                0
            ]
        },
        {
            "bufferView": 4,
            "byteOffset": 0,
            "componentType": 5126,
            "count": 192,
            "type": "VEC3",
            "max": [
                20.832307815551759,
                1.7819700241088868,
                4.243326663970947
            ],
            "min": [
                18.855501174926759,
                0.7819700837135315,
                2.0209529399871828
            ]
        },
        {
            "bufferView": 5,
            "byteOffset": 0,
            "componentType": 5125,
            "count": 1140,
            "type": "SCALAR",
            "max": [
                191
            ],
            "min": [
                0
            ]
        },
        {
            "bufferView": 6,
            "byteOffset": 0,
            "componentType": 5126,
            "count": 432,
            "type": "VEC3",
            "max": [
                18.399547576904298,
                1.7819700241088868,
                4.292439937591553
            ],
            "min": [
                16.369142532348634,
                0.7819700837135315,
                2.0209529399871828
            ]
        },
        {
            "bufferView": 7,
            "byteOffset": 0,
            "componentType": 5125,
            "count": 2592,
            "type": "SCALAR",
            "max": [
                431
            ],
            "min": [
                0
            ]
        },
        {
            "bufferView": 8,
            "byteOffset": 0,
            "componentType": 5126,
            "count": 124,
            "type": "VEC3",
            "max": [
                16.28933334350586,
                1.7819700241088868,
                4.292439937591553
            ],
            "min": [
                14.881421089172364,
                0.7819700837135315,
                2.070066213607788
            ]
        },
        {
            "bufferView": 9,
            "byteOffset": 0,
            "componentType": 5125,
            "count": 732,
            "type": "SCALAR",
            "max": [
                123
            ],
            "min": [
                0
            ]
        }
    ],
    "buffers": [
        {
            "byteLength": 61344,
            "uri": "result.bin"
        }
    ],
    "bufferViews": [
        {
            "buffer": 0,
            "byteOffset": 0,
            "byteLength": 5184,
            "target": 34962
        },
        {
            "buffer": 0,
            "byteOffset": 5184,
            "byteLength": 10368,
            "target": 34963
        },
        {
            "buffer": 0,
            "byteOffset": 15552,
            "byteLength": 6336,
            "target": 34962
        },
        {
            "buffer": 0,
            "byteOffset": 21888,
            "byteLength": 12624,
            "target": 34963
        },
        {
            "buffer": 0,
            "byteOffset": 34512,
            "byteLength": 2304,
            "target": 34962
        },
        {
            "buffer": 0,
            "byteOffset": 36816,
            "byteLength": 4560,
            "target": 34963
        },
        {
            "buffer": 0,
            "byteOffset": 41376,
            "byteLength": 5184,
            "target": 34962
        },
        {
            "buffer": 0,
            "byteOffset": 46560,
            "byteLength": 10368,
            "target": 34963
        },
        {
            "buffer": 0,
            "byteOffset": 56928,
            "byteLength": 1488,
            "target": 34962
        },
        {
            "buffer": 0,
            "byteOffset": 58416,
            "byteLength": 2928,
            "target": 34963
        }
    ],
    "materials": [
        {
            "name": "Material_2",
            "pbrMetallicRoughness": {
                "baseColorFactor": [
                    0.9803921580314636,
                    0.9803921580314636,
                    0.9803921580314636,
                    1.0
                ],
                "metallicFactor": 0.0,
                "roughnessFactor": 0.8585786819458008
            }
        }
    ],
    "meshes": [
        {
            "name": "Object_1",
            "primitives": [
                {
                    "mode": 4,
                    "material": 0,
                    "indices": 1,
                    "attributes": {
                        "POSITION": 0
                    }
                }
            ]
        },
        {
            "name": "Object_3",
            "primitives": [
                {
                    "mode": 4,
                    "material": 0,
                    "indices": 3,
                    "attributes": {
                        "POSITION": 2
                    }
                }
            ]
        },
        {
            "name": "Object_4",
            "primitives": [
                {
                    "mode": 4,
                    "material": 0,
                    "indices": 5,
                    "attributes": {
                        "POSITION": 4
                    }
                }
            ]
        },
        {
            "name": "Object_5",
            "primitives": [
                {
                    "mode": 4,
                    "material": 0,
                    "indices": 7,
                    "attributes": {
                        "POSITION": 6
                    }
                }
            ]
        },
        {
            "name": "Object_6",
            "primitives": [
                {
                    "mode": 4,
                    "material": 0,
                    "indices": 9,
                    "attributes": {
                        "POSITION": 8
                    }
                }
            ]
        }
    ],
    "nodes": [
        {
            "name": "RootNode",
            "children": [
                1
            ]
        },
        {
            "name": "Default",
            "children": [
                2,
                3,
                4,
                5,
                6
            ]
        },
        {
            "name": "Object_1",
            "mesh": 0
        },
        {
            "name": "Object_3",
            "mesh": 1
        },
        {
            "name": "Object_4",
            "mesh": 2
        },
        {
            "name": "Object_5",
            "mesh": 3
        },
        {
            "name": "Object_6",
            "mesh": 4
        }
    ],
    "scenes": [
        {
            "nodes": [
                0
            ]
        }
    ],
    "scene": 0
}